<?xml version="1.0" encoding="utf-8"?>
<!-- Generator: Adobe Illustrator 22.1.0, SVG Export Plug-In . SVG Version: 6.00 Build 0)  -->
<svg version="1.1" id="Capa_1" xmlns="http://www.w3.org/2000/svg" xmlns:xlink="http://www.w3.org/1999/xlink" x="0px" y="0px"
	 viewBox="0 0 108.1 68.1" style="enable-background:new 0 0 108.1 68.1;" xml:space="preserve">
<style type="text/css">
	.st0{fill:#FFFFFF;}
</style>
<g>
	<g>
		<g>
			<path class="st0" d="M40.4,19.7H37c-0.7,0-1.3-0.6-1.3-1.3s0.6-1.3,1.3-1.3h3.4c0.7,0,1.3,0.6,1.3,1.3S41.1,19.7,40.4,19.7z"/>
		</g>
		<g>
			<path class="st0" d="M62.5,36.9H39.2V17.2h23.3c5.4,0,9.8,4.4,9.8,9.8S67.9,36.9,62.5,36.9z M41.7,34.3h20.8c4,0,7.3-3.3,7.3-7.3
				c0-4-3.3-7.3-7.3-7.3H41.7V34.3z"/>
		</g>
		<g>
			<path class="st0" d="M40.4,36.9H37c-0.7,0-1.3-0.6-1.3-1.3c0-0.7,0.6-1.3,1.3-1.3h3.4c0.7,0,1.3,0.6,1.3,1.3
				C41.7,36.3,41.1,36.9,40.4,36.9z"/>
		</g>
		<g>
			<g>
				<g>
					<path class="st0" d="M65.1,24H44.4c-0.7,0-1.3-0.6-1.3-1.3s0.6-1.3,1.3-1.3h20.7c0.7,0,1.3,0.6,1.3,1.3S65.7,24,65.1,24z"/>
				</g>
			</g>
			<g>
				<g>
					<path class="st0" d="M65.1,28.3H44.4c-0.7,0-1.3-0.6-1.3-1.3s0.6-1.3,1.3-1.3h20.7c0.7,0,1.3,0.6,1.3,1.3S65.7,28.3,65.1,28.3z
						"/>
				</g>
			</g>
			<g>
				<g>
					<path class="st0" d="M65.1,32.6H44.4c-0.7,0-1.3-0.6-1.3-1.3s0.6-1.3,1.3-1.3h20.7c0.7,0,1.3,0.6,1.3,1.3S65.7,32.6,65.1,32.6z
						"/>
				</g>
			</g>
		</g>
		<g>
			<path class="st0" d="M40.4,2.5H37c-0.7,0-1.3-0.6-1.3-1.3S36.3,0,37,0h3.4c0.7,0,1.3,0.6,1.3,1.3S41.1,2.5,40.4,2.5z"/>
		</g>
		<g>
			<path class="st0" d="M62.5,19.7H39.2V0h23.3c5.4,0,9.8,4.4,9.8,9.8S67.9,19.7,62.5,19.7z M41.7,17.2h20.8c4,0,7.3-3.3,7.3-7.3
				s-3.3-7.3-7.3-7.3H41.7V17.2z"/>
		</g>
		<g>
			<path class="st0" d="M40.4,19.7H37c-0.7,0-1.3-0.6-1.3-1.3s0.6-1.3,1.3-1.3h3.4c0.7,0,1.3,0.6,1.3,1.3S41.1,19.7,40.4,19.7z"/>
		</g>
		<g>
			<g>
				<g>
					<path class="st0" d="M65.1,6.8H44.4c-0.7,0-1.3-0.6-1.3-1.3s0.6-1.3,1.3-1.3h20.7c0.7,0,1.3,0.6,1.3,1.3S65.7,6.8,65.1,6.8z"/>
				</g>
			</g>
			<g>
				<g>
					<path class="st0" d="M65.1,11.1H44.4c-0.7,0-1.3-0.6-1.3-1.3s0.6-1.3,1.3-1.3h20.7c0.7,0,1.3,0.6,1.3,1.3S65.7,11.1,65.1,11.1z
						"/>
				</g>
			</g>
			<g>
				<g>
					<path class="st0" d="M65.1,15.4H44.4c-0.7,0-1.3-0.6-1.3-1.3s0.6-1.3,1.3-1.3h20.7c0.7,0,1.3,0.6,1.3,1.3S65.7,15.4,65.1,15.4z
						"/>
				</g>
			</g>
		</g>
	</g>
	<g>
		<path class="st0" d="M0,46.2h6.9c4.4,0,7.7,1.4,7.7,5.3c0,2-1.1,4-3,4.6v0.1c2.4,0.5,4.1,2.2,4.1,5.1c0,4.3-3.5,6.3-8.2,6.3H0
			V46.2z M6.5,55.1c3,0,4.3-1.2,4.3-3c0-2.1-1.4-2.9-4.2-2.9H3.8v5.9H6.5z M7,64.7c3.1,0,4.9-1.1,4.9-3.5c0-2.3-1.7-3.2-4.9-3.2H3.8
			v6.8H7z"/>
		<path class="st0" d="M18.2,59.6c0-5.4,3.6-8.5,7.7-8.5s7.7,3.1,7.7,8.5c0,5.3-3.6,8.4-7.7,8.4S18.2,65,18.2,59.6z M29.6,59.6
			c0-3.2-1.4-5.4-3.8-5.4c-2.4,0-3.8,2.2-3.8,5.4c0,3.2,1.4,5.4,3.8,5.4C28.2,65,29.6,62.9,29.6,59.6z"/>
		<path class="st0" d="M36.2,59.6c0-5.4,3.6-8.5,7.7-8.5c4,0,7.7,3.1,7.7,8.5c0,5.3-3.6,8.4-7.7,8.4C39.8,68.1,36.2,65,36.2,59.6z
			 M47.6,59.6c0-3.2-1.4-5.4-3.8-5.4c-2.4,0-3.8,2.2-3.8,5.4c0,3.2,1.4,5.4,3.8,5.4C46.2,65,47.6,62.9,47.6,59.6z"/>
		<path class="st0" d="M55.1,44.5h3.7V59h0.1l6-7.4H69l-5.5,6.6l6.1,9.6h-4.1l-4.1-7l-2.5,2.9v4.1h-3.7V44.5z"/>
		<path class="st0" d="M71.7,46.6c0-1.3,1-2.1,2.3-2.1s2.3,0.9,2.3,2.1c0,1.2-1,2.1-2.3,2.1S71.7,47.9,71.7,46.6z M72.2,51.6H76
			v16.1h-3.8V51.6z"/>
		<path class="st0" d="M79.7,59.6c0-5.2,3.6-8.5,7.4-8.5c4.4,0,6.7,3.1,6.7,7.7c0,0.7-0.1,1.4-0.2,1.8H83.4c0.3,2.9,2.2,4.5,4.8,4.5
			c1.4,0,2.6-0.4,3.7-1.2l1.3,2.3c-1.5,1-3.5,1.7-5.5,1.7C83.2,68.1,79.7,65,79.7,59.6z M90.5,58.1c0-2.5-1.1-4-3.3-4
			c-1.9,0-3.5,1.4-3.9,4H90.5z"/>
		<path class="st0" d="M95.8,65.8l1.8-2.4c1.4,1.1,2.8,1.8,4.4,1.8c1.8,0,2.6-0.8,2.6-1.9c0-1.4-1.7-2-3.5-2.6
			c-2.1-0.8-4.5-2-4.5-4.7c0-2.8,2.3-4.8,5.9-4.8c2.2,0,4,0.9,5.4,1.9l-1.7,2.3c-1.1-0.8-2.3-1.4-3.5-1.4c-1.6,0-2.4,0.8-2.4,1.8
			c0,1.3,1.6,1.8,3.4,2.4c2.2,0.8,4.6,1.9,4.6,4.9c0,2.8-2.2,5-6.3,5C99.7,68.1,97.4,67.1,95.8,65.8z"/>
	</g>
</g>
</svg>
